<?xml version="1.0" encoding="utf-8"?>
<!-- Generator: Adobe Illustrator 16.0.0, SVG Export Plug-In . SVG Version: 6.00 Build 0)  -->
<!DOCTYPE svg PUBLIC "-//W3C//DTD SVG 1.1//EN" "http://www.w3.org/Graphics/SVG/1.1/DTD/svg11.dtd">
<svg version="1.1" id="Layer_1" xmlns="http://www.w3.org/2000/svg" xmlns:xlink="http://www.w3.org/1999/xlink" x="0px" y="0px"
	 width="954.93px" height="314.084px" viewBox="0 0 954.93 314.084" enable-background="new 0 0 954.93 314.084"
	 xml:space="preserve">
<path id="path9813_3_" fill="#E8CA1D" stroke="#010101" stroke-width="2" d="M118.183,240.638l126.127-57.951l-11.59,48.405
	l-112.492,70.222L118.183,240.638z"/>
<path id="path10477_2_" sodipodi:nodetypes="ccccccc" fill="#010101" fill-opacity="0.4038" d="M187.624,236.269l-43.476,25.995
	l-8.067,29.105l-15.818,9.255l-1.69-48.696l60.535-21.486L187.624,236.269z"/>
<path id="path10479_2_" fill="#010101" fill-opacity="0.4038" d="M169.034,239.661l14.578,22.184l27.255-17.113l-25.988-20.917
	L169.034,239.661z"/>
<path id="path9815_3_" fill="#E22A91" stroke="#010101" stroke-width="2" d="M157.725,85.195L90.231,49.06l7.498,122.718h49.77
	L157.725,85.195z"/>
<path id="path9819_3_" fill="#51C4CA" stroke="#010101" stroke-width="2" d="M236.811,200.414l-113.854-66.132l-100.22,49.768
	l110.446,77.723L236.811,200.414z"/>
<path id="path9821_3_" fill="#51C4CA" stroke="#010101" stroke-width="2" d="M323.396,147.917L208.177,89.285l-60.678,20.452
	l110.445,77.723L323.396,147.917z"/>
<path id="path10503_3_" sodipodi:nodetypes="cc" fill="none" stroke="#4D4D4D" stroke-width="2" d="M321.522,146.965l-91.993-46.949
	"/>
<path id="path9825_3_" fill="#E8CA1D" stroke="#010101" stroke-width="2" d="M110.685,79.741l126.126-56.587l-4.091,112.49
	l-117.264,63.405L110.685,79.741z"/>
<path id="path9837_3_" fill="#E22A91" stroke="#010101" stroke-width="2" d="M279.762,150.643L178.178,96.784l-0.681,68.858
	l59.313,34.771l-54.542,32.043l87.948,57.267L279.762,150.643z"/>
<path id="path9960_2_" sodipodi:nodetypes="cccccc" fill="#010101" fill-opacity="0.351" d="M177.907,97.044l-46.905,93.176
	l55.779,39.615l49.757-29.316l-59.106-34.704L177.907,97.044z"/>
<path id="path10471_2_" sodipodi:nodetypes="ccccc" fill="#010101" fill-opacity="0.4038" d="M115.156,199.092l-82.771-8.239
	l-10.219-6.825l91.088-44.517L115.156,199.092z"/>
<path id="path10473_2_" sodipodi:nodetypes="cccc" fill="#010101" fill-opacity="0.4038" d="M115.314,199.092l-23.136-49.28
	l20.917-10.617L115.314,199.092z"/>
<path id="path10475_2_" sodipodi:nodetypes="ccccc" fill="#010101" fill-opacity="0.4038" d="M111.261,92.971l-17.656,12.628
	l2.854,41.835l16.479-8.081L111.261,92.971z"/>
<g>
	<path fill="#989898" d="M412.922,206.326v-35.51l-12.234,25.887h-5.968l-12.532-25.887v35.51h-8.058V153.21h8.058l15.517,33.048
		l15.218-33.048h8.058v53.115H412.922z"/>
	<path fill="#989898" d="M465.297,206.326l-3.655-10.668h-20.963l-3.655,10.668h-8.579l19.471-53.115h6.49l19.471,53.115H465.297z
		 M451.347,165.221l-8.28,23.573h16.337L451.347,165.221z"/>
	<path fill="#989898" d="M513.791,201.328c-3.357,3.356-8.206,4.998-13.727,4.998h-18.65V153.21h18.65
		c5.521,0,10.369,1.641,13.727,4.998c5.744,5.744,5.371,13.503,5.371,21.187S519.535,195.583,513.791,201.328z M508.271,164.028
		c-2.238-2.462-5.222-3.581-9.026-3.581h-9.772v38.643h9.772c3.805,0,6.788-1.119,9.026-3.581c2.76-3.059,2.835-8.803,2.835-16.113
		S511.03,167.086,508.271,164.028z"/>
	<path fill="#989898" d="M545.201,206.773c-7.982,0-13.727-1.864-18.799-7.012l5.371-5.297c3.879,3.879,8.131,5.072,13.577,5.072
		c6.938,0,10.966-2.983,10.966-8.131c0-2.312-0.671-4.252-2.089-5.521c-1.343-1.269-2.686-1.79-5.818-2.238l-6.267-0.895
		c-4.327-0.598-7.758-2.089-10.071-4.253c-2.61-2.462-3.879-5.818-3.879-10.146c0-9.25,6.714-15.591,17.755-15.591
		c7.013,0,11.937,1.79,16.486,6.042l-5.147,5.073c-3.282-3.134-7.087-4.104-11.562-4.104c-6.267,0-9.698,3.581-9.698,8.281
		c0,1.939,0.597,3.655,2.015,4.923c1.343,1.194,3.506,2.089,5.968,2.462l6.043,0.896c4.923,0.746,7.684,1.939,9.921,3.954
		c2.91,2.536,4.327,6.341,4.327,10.892C564.299,200.955,556.316,206.773,545.201,206.773z"/>
	<path fill="#989898" d="M622.642,206.326v-23.2h-21.559v23.2h-8.058V153.21h8.058v22.679h21.559V153.21h8.058v53.115H622.642z"/>
	<path fill="#989898" d="M675.762,201.104c-3.656,3.655-8.355,5.669-14.025,5.669s-10.295-2.014-13.95-5.669
		c-5.222-5.223-5.147-11.116-5.147-21.336c0-10.221-0.074-16.113,5.147-21.336c3.655-3.655,8.28-5.669,13.95-5.669
		s10.369,2.014,14.025,5.669c5.222,5.223,5.072,11.115,5.072,21.336C680.834,189.988,680.983,195.881,675.762,201.104z
		 M669.645,163.282c-1.865-2.015-4.774-3.283-7.908-3.283c-3.133,0-6.042,1.269-7.907,3.283c-2.611,2.834-3.134,5.818-3.134,16.486
		s0.522,13.651,3.134,16.486c1.865,2.015,4.774,3.282,7.907,3.282c3.134,0,6.043-1.268,7.908-3.282
		c2.61-2.835,3.133-5.818,3.133-16.486S672.255,166.116,669.645,163.282z"/>
	<path fill="#989898" d="M714.26,206.326h-21.485V153.21h20.665c9.847,0,16.039,5.595,16.039,14.547
		c0,5.744-3.581,9.848-7.162,11.265c4.103,1.642,7.982,5.595,7.982,12.309C730.299,201.104,723.659,206.326,714.26,206.326z
		 M712.768,160.447h-11.936v15.218h11.936c5.147,0,8.653-2.686,8.653-7.608C721.421,163.132,717.915,160.447,712.768,160.447z
		 M713.514,182.901h-12.682v16.188h12.682c5.595,0,8.729-3.432,8.729-8.131C722.242,186.258,719.108,182.901,713.514,182.901z"/>
	<path fill="#989898" d="M759.62,184.468v21.857h-8.057v-21.857l-15.89-31.258h8.803l11.115,23.35l11.115-23.35h8.804
		L759.62,184.468z"/>
	<path fill="#989898" d="M782.824,206.326V153.21h33.943v7.236h-25.886v15.517h22.081v7.162h-22.081v15.964h25.886v7.236H782.824z"
		/>
	<path fill="#989898" d="M373.372,278.326v-42.719h4.56v42.719H373.372z"/>
	<path fill="#989898" d="M417.531,278.326l-22.68-34.259v34.259h-4.56v-42.719h4.32l22.679,34.139v-34.139h4.56v42.719H417.531z"/>
	<path fill="#989898" d="M446.751,239.687v38.639h-4.56v-38.639h-12.359v-4.08h29.279v4.08H446.751z"/>
	<path fill="#989898" d="M467.091,278.326v-42.719h26.519v4.08H471.65v15.06h18.72v4.08h-18.72v15.419h21.959v4.08H467.091z"/>
	<path fill="#989898" d="M527.63,278.326l-9.72-18.959h-10.26v18.959h-4.56v-42.719h16.379c7.44,0,12.66,4.5,12.66,11.88
		c0,6.24-3.78,10.319-9.3,11.46l10.14,19.379H527.63z M519.05,239.687H507.65v15.659h11.399c4.98,0,8.521-2.579,8.521-7.799
		S524.03,239.687,519.05,239.687z"/>
	<path fill="#989898" d="M567.35,278.326l-3.42-9.659h-18.659l-3.42,9.659h-4.86l15.72-42.719h3.84l15.659,42.719H567.35z
		 M554.689,242.147l-8.039,22.56h15.959L554.689,242.147z"/>
	<path fill="#989898" d="M591.829,278.686c-4.199,0-8.039-1.561-10.919-4.44c-4.021-4.02-4.021-8.22-4.021-17.279
		s0-13.259,4.021-17.279c2.88-2.88,6.72-4.439,10.919-4.439c7.68,0,13.38,4.68,14.819,12.72h-4.68c-1.14-5.22-4.8-8.64-10.14-8.64
		c-2.819,0-5.52,1.08-7.38,3c-2.699,2.76-2.999,5.699-2.999,14.639s0.3,11.88,2.999,14.64c1.86,1.92,4.561,3,7.38,3
		c5.34,0,9.12-3.42,10.26-8.64h4.56C605.269,274.005,599.449,278.686,591.829,278.686z"/>
	<path fill="#989898" d="M628.069,239.687v38.639h-4.56v-38.639H611.15v-4.08h29.279v4.08H628.069z"/>
	<path fill="#989898" d="M648.409,278.326v-42.719h4.56v42.719H648.409z"/>
	<path fill="#989898" d="M677.389,278.326h-3.72l-14.039-42.719h4.799l11.1,34.559l11.1-34.559h4.8L677.389,278.326z"/>
	<path fill="#989898" d="M698.089,278.326v-42.719h26.519v4.08h-21.959v15.06h18.72v4.08h-18.72v15.419h21.959v4.08H698.089z"/>
	<path fill="#989898" d="M773.927,278.326l-3.42-9.659h-18.659l-3.42,9.659h-4.86l15.72-42.719h3.84l15.659,42.719H773.927z
		 M761.267,242.147l-8.039,22.56h15.959L761.267,242.147z"/>
	<path fill="#989898" d="M810.227,278.326l-9.72-18.959h-10.26v18.959h-4.56v-42.719h16.38c7.439,0,12.659,4.5,12.659,11.88
		c0,6.24-3.78,10.319-9.3,11.46l10.14,19.379H810.227z M801.646,239.687h-11.399v15.659h11.399c4.98,0,8.521-2.579,8.521-7.799
		S806.627,239.687,801.646,239.687z"/>
	<path fill="#989898" d="M837.587,239.687v38.639h-4.561v-38.639h-12.359v-4.08h29.279v4.08H837.587z"/>
	<path fill="#989898" d="M857.926,278.326v-42.719h4.56v42.719H857.926z"/>
	<path fill="#989898" d="M885.825,278.686c-6.42,0-10.619-1.62-14.64-5.64l3.12-3.12c3.54,3.54,6.84,4.68,11.64,4.68
		c6.239,0,10.079-2.94,10.079-7.92c0-2.22-0.659-4.14-2.039-5.34s-2.46-1.56-5.58-2.04l-4.979-0.779c-3.36-0.54-6-1.62-7.86-3.24
		c-2.159-1.92-3.239-4.56-3.239-7.979c0-7.26,5.22-12.06,13.679-12.06c5.46,0,9.061,1.38,12.72,4.68l-2.939,2.939
		c-2.64-2.399-5.46-3.659-9.96-3.659c-5.699,0-9,3.18-9,7.919c0,2.101,0.601,3.78,1.92,4.92c1.32,1.141,3.54,1.98,5.76,2.34
		l4.681,0.721c4.02,0.6,5.999,1.439,7.8,3c2.34,1.979,3.6,4.919,3.6,8.459C900.585,274.066,894.705,278.686,885.825,278.686z"/>
	<path fill="#989898" d="M922.665,239.687v38.639h-4.56v-38.639h-12.359v-4.08h29.279v4.08H922.665z"/>
</g>
</svg>
